HIERARCHY
ROOT Hips
{
	OFFSET 0.000000 121.760803 0.000000
	CHANNELS 6 Xposition Yposition Zposition Xrotation Yrotation Zrotation 
	JOINT Spine
	{
		OFFSET 0.072000 7.257294 -0.789700
		CHANNELS 3 Xrotation Yrotation Zrotation
		JOINT Spine1
		{
			OFFSET 0.000000 12.508769 -0.658067
			CHANNELS 3 Xrotation Yrotation Zrotation
			JOINT Spine1_split
			{
				OFFSET 0.000000 12.508769 -0.658067
				CHANNELS 3 Xrotation Yrotation Zrotation
				JOINT Spine2
				{
					OFFSET 0.000000 12.508769 -0.658067
					CHANNELS 3 Xrotation Yrotation Zrotation
					JOINT Neck
					{
						OFFSET 0.000000 14.033295 7.520400
						CHANNELS 3 Xrotation Yrotation Zrotation
						JOINT Head
						{
							OFFSET 0.000000 8.198502 5.703100
							CHANNELS 3 Xrotation Yrotation Zrotation
							JOINT HeadTop_End
							{
								OFFSET 0.000000 17.760803 13.332701
								CHANNELS 3 Xrotation Yrotation Zrotation
								End Site
								{
									OFFSET 0.000000 0.000000 0.000000
								}
							}
						}
					}
					JOINT LeftShoulder
					{
						OFFSET 6.292450 5.785301 -0.669000
						CHANNELS 3 Xrotation Yrotation Zrotation
						JOINT LeftShoulder_split
						{
							OFFSET 6.292450 5.785301 -0.669000
							CHANNELS 3 Xrotation Yrotation Zrotation
							JOINT LeftArm
							{
								OFFSET 13.907140 -6.093903 1.965100
								CHANNELS 3 Xrotation Yrotation Zrotation
								JOINT LeftForeArm
								{
									OFFSET 34.140198 0.000000 0.000000
									CHANNELS 3 Xrotation Yrotation Zrotation
									JOINT LeftHand
									{
										OFFSET 40.960209 0.000000 0.000000
										CHANNELS 3 Xrotation Yrotation Zrotation
										JOINT LeftHandThumb1
										{
											OFFSET 10.006996 -7.170425 9.573125
											CHANNELS 3 Xrotation Yrotation Zrotation
											JOINT LeftHandThumb2
											{
												OFFSET 1.835007 -1.059448 1.059443
												CHANNELS 3 Xrotation Yrotation Zrotation
												JOINT LeftHandThumb3
												{
													OFFSET 2.112267 -1.219513 1.219518
													CHANNELS 3 Xrotation Yrotation Zrotation
													JOINT LeftHandThumb4
													{
														OFFSET 4.843811 -2.796570 2.796576
														CHANNELS 3 Xrotation Yrotation Zrotation
														End Site
														{
															OFFSET 0.000000 0.000000 0.000000
														}
													}
												}
											}
										}
										JOINT LeftHandIndex1
										{
											OFFSET 18.389847 -0.922348 4.596882
											CHANNELS 3 Xrotation Yrotation Zrotation
											JOINT LeftHandIndex2
											{
												OFFSET 4.711273 0.000000 0.000000
												CHANNELS 3 Xrotation Yrotation Zrotation
												JOINT LeftHandIndex3
												{
													OFFSET 2.886131 0.000000 0.000000
													CHANNELS 3 Xrotation Yrotation Zrotation
													JOINT LeftHandIndex4
													{
														OFFSET 6.145912 0.000000 0.000000
														CHANNELS 3 Xrotation Yrotation Zrotation
														End Site
														{
															OFFSET 0.000000 0.000000 0.000000
														}
													}
												}
											}
										}
										JOINT LeftHandMiddle1
										{
											OFFSET 18.013008 0.000000 0.000000
											CHANNELS 3 Xrotation Yrotation Zrotation
											JOINT LeftHandMiddle2
											{
												OFFSET 4.946693 0.000000 0.000000
												CHANNELS 3 Xrotation Yrotation Zrotation
												JOINT LeftHandMiddle3
												{
													OFFSET 3.342232 0.000000 0.000000
													CHANNELS 3 Xrotation Yrotation Zrotation
													JOINT LeftHandMiddle4
													{
														OFFSET 4.461754 0.000000 0.000000
														CHANNELS 3 Xrotation Yrotation Zrotation
														End Site
														{
															OFFSET 0.000000 0.000000 0.000000
														}
													}
												}
											}
										}
										JOINT LeftHandRing1
										{
											OFFSET 15.849892 -0.102921 -4.126150
											CHANNELS 3 Xrotation Yrotation Zrotation
											JOINT LeftHandRing2
											{
												OFFSET 3.527054 0.000000 0.000000
												CHANNELS 3 Xrotation Yrotation Zrotation
												JOINT LeftHandRing3
												{
													OFFSET 2.961098 0.000000 0.000000
													CHANNELS 3 Xrotation Yrotation Zrotation
													JOINT LeftHandRing4
													{
														OFFSET 4.927200 0.000000 0.000000
														CHANNELS 3 Xrotation Yrotation Zrotation
														End Site
														{
															OFFSET 0.000000 0.000000 0.000000
														}
													}
												}
											}
										}
										JOINT LeftHandPinky1
										{
											OFFSET 12.791824 -0.832031 -6.799156
											CHANNELS 3 Xrotation Yrotation Zrotation
											JOINT LeftHandPinky2
											{
												OFFSET 3.327133 0.000000 0.000000
												CHANNELS 3 Xrotation Yrotation Zrotation
												JOINT LeftHandPinky3
												{
													OFFSET 3.014900 0.000000 0.000000
													CHANNELS 3 Xrotation Yrotation Zrotation
													JOINT LeftHandPinky4
													{
														OFFSET 5.847786 0.000000 0.000000
														CHANNELS 3 Xrotation Yrotation Zrotation
														End Site
														{
															OFFSET 0.000000 0.000000 0.000000
														}
													}
												}
											}
										}
									}
								}
							}
						}
					}
					JOINT RightShoulder
					{
						OFFSET -6.292450 5.785301 -0.669000
						CHANNELS 3 Xrotation Yrotation Zrotation
						JOINT RightShoulder_split
						{
							OFFSET -6.292450 5.785301 -0.669000
							CHANNELS 3 Xrotation Yrotation Zrotation
							JOINT RightArm
							{
								OFFSET -13.907140 -6.093903 1.965100
								CHANNELS 3 Xrotation Yrotation Zrotation
								JOINT RightForeArm
								{
									OFFSET -34.140198 0.000000 0.000000
									CHANNELS 3 Xrotation Yrotation Zrotation
									JOINT RightHand
									{
										OFFSET -40.960209 0.000000 0.000000
										CHANNELS 3 Xrotation Yrotation Zrotation
										JOINT RightHandThumb1
										{
											OFFSET -10.007050 -7.170456 9.573117
											CHANNELS 3 Xrotation Yrotation Zrotation
											JOINT RightHandThumb2
											{
												OFFSET -1.835007 -1.059448 1.059443
												CHANNELS 3 Xrotation Yrotation Zrotation
												JOINT RightHandThumb3
												{
													OFFSET -2.112267 -1.219513 1.219518
													CHANNELS 3 Xrotation Yrotation Zrotation
													JOINT RightHandThumb4
													{
														OFFSET -4.843834 -2.796585 2.796590
														CHANNELS 3 Xrotation Yrotation Zrotation
														End Site
														{
															OFFSET 0.000000 0.000000 0.000000
														}
													}
												}
											}
										}
										JOINT RightHandIndex1
										{
											OFFSET -18.389870 -0.922424 4.596786
											CHANNELS 3 Xrotation Yrotation Zrotation
											JOINT RightHandIndex2
											{
												OFFSET -4.711273 0.000000 0.000000
												CHANNELS 3 Xrotation Yrotation Zrotation
												JOINT RightHandIndex3
												{
													OFFSET -2.886131 0.000000 0.000000
													CHANNELS 3 Xrotation Yrotation Zrotation
													JOINT RightHandIndex4
													{
														OFFSET -6.145920 0.000000 0.000000
														CHANNELS 3 Xrotation Yrotation Zrotation
														End Site
														{
															OFFSET 0.000000 0.000000 0.000000
														}
													}
												}
											}
										}
										JOINT RightHandMiddle1
										{
											OFFSET -18.013008 0.000000 0.000000
											CHANNELS 3 Xrotation Yrotation Zrotation
											JOINT RightHandMiddle2
											{
												OFFSET -4.946693 0.000000 0.000000
												CHANNELS 3 Xrotation Yrotation Zrotation
												JOINT RightHandMiddle3
												{
													OFFSET -3.342232 0.000000 0.000000
													CHANNELS 3 Xrotation Yrotation Zrotation
													JOINT RightHandMiddle4
													{
														OFFSET -4.461754 0.000000 0.000000
														CHANNELS 3 Xrotation Yrotation Zrotation
														End Site
														{
															OFFSET 0.000000 0.000000 0.000000
														}
													}
												}
											}
										}
										JOINT RightHandRing1
										{
											OFFSET -15.849876 -0.102936 -4.126237
											CHANNELS 3 Xrotation Yrotation Zrotation
											JOINT RightHandRing2
											{
												OFFSET -3.527054 0.000000 0.000000
												CHANNELS 3 Xrotation Yrotation Zrotation
												JOINT RightHandRing3
												{
													OFFSET -2.961098 0.000000 0.000000
													CHANNELS 3 Xrotation Yrotation Zrotation
													JOINT RightHandRing4
													{
														OFFSET -4.927200 0.000000 0.000000
														CHANNELS 3 Xrotation Yrotation Zrotation
														End Site
														{
															OFFSET 0.000000 0.000000 0.000000
														}
													}
												}
											}
										}
										JOINT RightHandPinky1
										{
											OFFSET -12.791786 -0.832077 -6.799222
											CHANNELS 3 Xrotation Yrotation Zrotation
											JOINT RightHandPinky2
											{
												OFFSET -3.327133 0.000000 0.000000
												CHANNELS 3 Xrotation Yrotation Zrotation
												JOINT RightHandPinky3
												{
													OFFSET -3.014900 0.000000 0.000000
													CHANNELS 3 Xrotation Yrotation Zrotation
													JOINT RightHandPinky4
													{
														OFFSET -5.847786 0.000000 0.000000
														CHANNELS 3 Xrotation Yrotation Zrotation
														End Site
														{
															OFFSET 0.000000 0.000000 0.000000
														}
													}
												}
											}
										}
									}
								}
							}
						}
					}
				}
			}
		}
	}
	JOINT LeftUpLeg
	{
		OFFSET 13.026900 -6.336304 -1.092800
		CHANNELS 3 Xrotation Yrotation Zrotation
		JOINT LeftLeg
		{
			OFFSET 0.524474 -46.096886 9.782700
			CHANNELS 3 Xrotation Yrotation Zrotation
			JOINT LeftFoot
			{
				OFFSET -0.524474 -53.427422 -12.948200
				CHANNELS 3 Xrotation Yrotation Zrotation
				JOINT LeftToeBase
				{
					OFFSET 0.192200 -14.009700 16.364100
					CHANNELS 3 Xrotation Yrotation Zrotation
					JOINT LeftToe_End
					{
						OFFSET -1.784700 -0.561700 9.474800
						CHANNELS 3 Xrotation Yrotation Zrotation
						End Site
						{
							OFFSET 0.000000 0.000000 0.000000
						}
					}
				}
			}
		}
	}
	JOINT RightUpLeg
	{
		OFFSET -12.883000 -6.336304 -1.092800
		CHANNELS 3 Xrotation Yrotation Zrotation
		JOINT RightLeg
		{
			OFFSET -0.524587 -46.096825 9.782800
			CHANNELS 3 Xrotation Yrotation Zrotation
			JOINT RightFoot
			{
				OFFSET 0.524587 -53.427383 -12.948300
				CHANNELS 3 Xrotation Yrotation Zrotation
				JOINT RightToeBase
				{
					OFFSET -0.192200 -14.009700 16.364100
					CHANNELS 3 Xrotation Yrotation Zrotation
					JOINT RightToe_End
					{
						OFFSET 1.784700 -0.561700 9.474800
						CHANNELS 3 Xrotation Yrotation Zrotation
						End Site
						{
							OFFSET 0.000000 0.000000 0.000000
						}
					}
				}
			}
		}
	}
}
MOTION
Frames: 4
Frame Time: 0.016667
-1.145274 95.926743 0.541088 11.742472 -49.637959 11.853839 11.000802 2.884712 -2.598246 6.100705 5.566533 -4.284679 0.000000 0.000000 0.000000 -5.786926 6.328151 -3.046183 2.318919 9.363307 -0.265300 -4.146750 23.161914 -3.523336 0.000000 -0.000000 -0.000000 -1.875337 -16.181746 -2.870470 0.000000 0.000000 0.000000 -10.644672 2.164766 -45.510636 -22.862381 -25.786239 -15.871688 2.491057 -2.511881 6.860504 18.457953 -9.513825 13.216585 -1.150196 11.255336 -8.400850 5.706538 8.483121 -0.820712 -0.000001 -0.000004 0.000000 -1.232795 -5.771951 -0.192343 0.133945 -0.197656 -4.602132 0.055737 -0.448184 -7.568195 -0.000001 -0.000002 -0.000001 1.884745 4.663358 -4.597408 0.476694 -1.009853 -12.986439 0.628514 -1.346632 -16.554024 -0.000002 0.000001 -0.000002 3.024626 7.938942 -14.103492 -0.707991 -0.566241 -18.895718 -0.726392 -0.705021 -22.058439 0.000001 0.000003 0.000003 2.010388 6.305963 -22.386539 -0.815373 -0.210746 -16.746463 -2.232646 0.018979 -34.673834 -0.000001 0.000001 0.000004 -5.074769 24.344973 1.482928 0.000000 0.000000 0.000000 6.642454 -34.735009 57.610433 -21.032055 44.833871 19.961740 -0.087224 35.608491 7.474295 55.149526 18.649570 -29.698257 -0.442551 -14.180542 7.313145 21.666994 -29.244500 9.142378 -0.000001 -0.000001 -0.000000 5.673365 7.585022 36.844158 1.050465 3.824489 68.900257 0.499576 3.026037 62.196427 -0.000001 0.000000 0.000003 -0.125707 1.886095 45.000780 -1.169014 3.204700 68.417677 -0.936436 1.813612 41.107535 -0.000000 -0.000001 0.000002 -5.312017 1.216640 58.508821 -0.745206 1.667565 48.011257 -0.816490 1.840603 53.666552 0.000002 0.000001 0.000001 -7.756800 -9.376463 47.264035 -0.526053 1.541600 45.600508 -0.508190 0.803426 24.986618 -0.000002 0.000002 -0.000001 -66.339162 27.373837 41.603194 43.627516 -19.169530 3.300678 6.155656 0.696583 -10.402420 -0.953003 -6.111302 0.978994 0.000000 -0.000000 -0.000000 -33.768360 0.305321 -25.532142 50.490790 2.246360 -6.583163 -23.895389 -2.614860 25.261313 0.528339 2.970042 1.471350 0.000000 0.000004 0.000000 
-1.175548 96.028534 0.386665 11.541808 -49.938508 11.649142 10.980057 2.875500 -2.619268 5.917138 5.588678 -4.389562 0.000000 0.000000 0.000000 -5.960383 6.358698 -3.163037 2.261341 9.594040 -0.194442 -3.771942 23.396941 -3.738608 0.000000 -0.000000 -0.000001 -1.850133 -16.049194 -2.794401 0.000000 0.000000 0.000000 -9.956429 2.817354 -45.285899 -23.315184 -27.943286 -17.248434 2.184519 -1.065435 7.247062 18.457978 -9.513791 13.216584 -1.150179 11.255322 -8.400837 5.706547 8.483088 -0.820706 -0.000000 0.000000 -0.000002 -1.232783 -5.771933 -0.192357 0.133962 -0.197660 -4.602075 0.055751 -0.448156 -7.568186 -0.000002 0.000000 -0.000001 1.884754 4.663382 -4.597392 0.476680 -1.009839 -12.986438 0.628527 -1.346627 -16.554056 0.000002 -0.000002 -0.000003 3.024621 7.938928 -14.103476 -0.708003 -0.566216 -18.895751 -0.726389 -0.705020 -22.058419 0.000000 -0.000000 0.000001 2.010427 6.305941 -22.386551 -0.815402 -0.210745 -16.746476 -2.232643 0.019001 -34.673804 -0.000000 -0.000002 -0.000001 -5.082253 24.342378 1.499011 0.000000 0.000000 0.000000 5.825078 -34.063793 57.690155 -20.478444 43.293967 19.040908 0.231102 35.997163 7.762139 55.149526 18.649572 -29.698260 -0.442548 -14.180541 7.313143 21.666996 -29.244503 9.142380 0.000000 0.000000 0.000001 5.673366 7.585016 36.844158 1.050467 3.824492 68.900257 0.499576 3.026037 62.196433 -0.000001 -0.000001 0.000001 -0.125705 1.886092 45.000773 -1.169015 3.204697 68.417677 -0.936435 1.813613 41.107531 0.000001 0.000000 0.000000 -5.312019 1.216641 58.508821 -0.745205 1.667566 48.011254 -0.816486 1.840604 53.666552 0.000003 0.000001 -0.000002 -7.756800 -9.376465 47.264028 -0.526053 1.541601 45.600511 -0.508191 0.803431 24.986618 -0.000004 0.000001 -0.000001 -66.086083 27.407210 41.826490 43.361869 -19.106710 3.285898 6.259258 0.707847 -10.541168 -0.868445 -6.083864 0.915312 -0.000000 0.000000 -0.000000 -33.775586 0.200790 -25.361735 50.440916 2.402631 -6.573762 -23.807118 -2.419297 25.059472 0.528341 2.970013 1.471326 -0.000000 -0.000001 0.000000 
-1.212680 96.131699 0.241161 11.404706 -50.277033 11.497316 10.956614 2.864544 -2.629146 5.754463 5.620911 -4.465463 0.000000 0.000000 0.000000 -6.114667 6.395256 -3.246990 2.473462 9.737929 -0.469675 -4.007680 23.494360 -3.699870 -0.000000 0.000000 -0.000000 -1.856190 -16.125018 -2.793418 0.000000 0.000000 0.000000 -9.304248 3.610371 -44.990599 -23.777470 -29.920696 -18.575181 1.944018 0.057003 7.820646 18.457983 -9.513793 13.216603 -1.150187 11.255288 -8.400874 5.706508 8.483127 -0.820702 0.000002 -0.000001 0.000001 -1.232756 -5.771926 -0.192317 0.133943 -0.197691 -4.602115 0.055734 -0.448182 -7.568185 -0.000005 0.000000 -0.000001 1.884749 4.663365 -4.597389 0.476692 -1.009845 -12.986426 0.628536 -1.346630 -16.554024 -0.000000 0.000003 -0.000001 3.024631 7.938907 -14.103473 -0.708019 -0.566190 -18.895747 -0.726382 -0.705040 -22.058432 -0.000001 -0.000001 -0.000002 2.010396 6.305950 -22.386519 -0.815376 -0.210749 -16.746495 -2.232659 0.018998 -34.673841 -0.000002 0.000000 0.000002 -5.081649 24.149916 1.470716 0.000000 0.000000 0.000000 7.290164 -35.178937 57.904493 -21.255084 45.591181 20.253123 -0.452733 34.561536 8.086147 55.149526 18.649575 -29.698257 -0.442552 -14.180541 7.313141 21.666994 -29.244493 9.142378 0.000000 -0.000000 0.000001 5.673366 7.585019 36.844161 1.050468 3.824491 68.900257 0.499578 3.026036 62.196433 0.000000 0.000001 -0.000000 -0.125705 1.886092 45.000773 -1.169014 3.204699 68.417670 -0.936437 1.813612 41.107535 -0.000004 0.000000 -0.000001 -5.312019 1.216643 58.508821 -0.745206 1.667566 48.011254 -0.816488 1.840604 53.666552 -0.000001 -0.000000 0.000001 -7.756799 -9.376465 47.264035 -0.526052 1.541595 45.600508 -0.508191 0.803431 24.986618 -0.000002 -0.000002 0.000001 -65.857879 27.450325 42.088531 43.094122 -19.041652 3.257836 6.347734 0.729075 -10.689412 -0.830820 -5.971992 0.903577 -0.000000 0.000001 0.000000 -33.825241 0.116351 -25.185247 50.384881 2.575380 -6.558613 -23.712436 -2.209257 24.850241 0.528317 2.970069 1.471356 0.000000 -0.000004 0.000000 
-1.255078 96.237022 0.097842 11.255978 -50.598998 11.371417 10.946503 2.841908 -2.648871 5.661716 5.628862 -4.526597 0.000000 0.000000 0.000000 -6.202367 6.409815 -3.316668 2.263841 9.977100 -0.273084 -3.343275 23.780200 -4.097042 -0.000001 0.000000 -0.000000 -1.837233 -16.093987 -2.699864 0.000000 0.000000 0.000000 -8.760466 4.176583 -44.764981 -24.203691 -31.576859 -19.708427 1.849843 0.895200 8.346058 18.457965 -9.513817 13.216583 -1.150194 11.255329 -8.400835 5.706535 8.483079 -0.820730 0.000002 -0.000000 0.000001 -1.232781 -5.771964 -0.192331 0.133948 -0.197657 -4.602144 0.055767 -0.448187 -7.568183 0.000001 0.000001 -0.000001 1.884749 4.663355 -4.597433 0.476674 -1.009823 -12.986398 0.628560 -1.346606 -16.553981 0.000005 0.000004 -0.000000 3.024631 7.938923 -14.103477 -0.708008 -0.566193 -18.895763 -0.726390 -0.705044 -22.058441 0.000004 0.000003 0.000001 2.010396 6.305938 -22.386553 -0.815374 -0.210754 -16.746487 -2.232631 0.018996 -34.673841 -0.000001 0.000003 0.000003 -5.039713 24.119906 1.323479 0.000000 0.000000 0.000000 8.594066 -36.353972 58.117082 -22.083492 47.698476 21.417673 -0.802671 33.303842 8.194894 55.149526 18.649574 -29.698257 -0.442549 -14.180542 7.313142 21.666996 -29.244507 9.142379 -0.000001 0.000001 0.000001 5.673363 7.585021 36.844165 1.050467 3.824495 68.900257 0.499576 3.026040 62.196433 0.000001 -0.000002 0.000002 -0.125709 1.886095 45.000780 -1.169014 3.204698 68.417670 -0.936435 1.813613 41.107535 -0.000002 0.000000 0.000000 -5.312020 1.216642 58.508821 -0.745206 1.667563 48.011247 -0.816488 1.840605 53.666552 -0.000001 0.000002 -0.000001 -7.756803 -9.376463 47.264035 -0.526054 1.541598 45.600508 -0.508186 0.803432 24.986620 0.000002 0.000000 0.000001 -65.559748 27.505635 42.239454 42.819183 -18.931582 3.292799 6.426470 0.767446 -10.887494 -0.734187 -5.883897 0.829459 -0.000000 -0.000001 0.000000 -33.860519 0.048712 -25.044396 50.333962 2.740604 -6.544496 -23.625428 -2.009239 24.648331 0.528330 2.970038 1.471347 -0.000000 0.000001 -0.000000 
